<?xml version="1.0" encoding="utf-8"?>
<!-- Generator: Adobe Illustrator 27.5.0, SVG Export Plug-In . SVG Version: 6.00 Build 0)  -->
<svg version="1.1" xmlns="http://www.w3.org/2000/svg" xmlns:xlink="http://www.w3.org/1999/xlink" x="0px" y="0px"
	 viewBox="0 0 500 500" style="enable-background:new 0 0 500 500;" xml:space="preserve" >
<g id="Sparkles" >
	<g>
		<g>
			<path style="fill:none;stroke:#263238;stroke-width:2;stroke-linecap:round;stroke-linejoin:round;stroke-miterlimit:10;" d="
				M36.212,243.251v3.567"/>
			<path style="fill:none;stroke:#263238;stroke-width:2;stroke-linecap:round;stroke-linejoin:round;stroke-miterlimit:10;" d="
				M36.212,250.84v3.567"/>
			<path style="fill:none;stroke:#263238;stroke-width:2;stroke-linecap:round;stroke-linejoin:round;stroke-miterlimit:10;" d="
				M30.633,248.829h3.567"/>
			<path style="fill:none;stroke:#263238;stroke-width:2;stroke-linecap:round;stroke-linejoin:round;stroke-miterlimit:10;" d="
				M38.223,248.829h3.567"/>
		</g>
		<g>
			<path style="fill:none;stroke:#263238;stroke-width:2;stroke-linecap:round;stroke-linejoin:round;stroke-miterlimit:10;" d="
				M337.367,311.078v3.567"/>
			<path style="fill:none;stroke:#263238;stroke-width:2;stroke-linecap:round;stroke-linejoin:round;stroke-miterlimit:10;" d="
				M337.367,318.667v3.567"/>
			<path style="fill:none;stroke:#263238;stroke-width:2;stroke-linecap:round;stroke-linejoin:round;stroke-miterlimit:10;" d="
				M331.789,316.656h3.567"/>
			<path style="fill:none;stroke:#263238;stroke-width:2;stroke-linecap:round;stroke-linejoin:round;stroke-miterlimit:10;" d="
				M339.378,316.656h3.567"/>
		</g>
		<g>
			<path style="fill:none;stroke:#263238;stroke-width:2;stroke-linecap:round;stroke-linejoin:round;stroke-miterlimit:10;" d="
				M462.717,183.035v3.567"/>
			<path style="fill:none;stroke:#263238;stroke-width:2;stroke-linecap:round;stroke-linejoin:round;stroke-miterlimit:10;" d="
				M462.717,190.624v3.567"/>
			<path style="fill:none;stroke:#263238;stroke-width:2;stroke-linecap:round;stroke-linejoin:round;stroke-miterlimit:10;" d="
				M457.139,188.613h3.567"/>
			<path style="fill:none;stroke:#263238;stroke-width:2;stroke-linecap:round;stroke-linejoin:round;stroke-miterlimit:10;" d="
				M464.728,188.613h3.567"/>
		</g>
		<g>
			<path style="fill:none;stroke:#263238;stroke-width:2;stroke-linecap:round;stroke-linejoin:round;stroke-miterlimit:10;" d="
				M197.745,35.346v3.567"/>
			<path style="fill:none;stroke:#263238;stroke-width:2;stroke-linecap:round;stroke-linejoin:round;stroke-miterlimit:10;" d="
				M197.745,42.935v3.567"/>
			<path style="fill:none;stroke:#263238;stroke-width:2;stroke-linecap:round;stroke-linejoin:round;stroke-miterlimit:10;" d="
				M192.167,40.924h3.567"/>
			<path style="fill:none;stroke:#263238;stroke-width:2;stroke-linecap:round;stroke-linejoin:round;stroke-miterlimit:10;" d="
				M199.756,40.924h3.568"/>
		</g>
	</g>
</g>
<g id="Image">
	<g>
		<path style="fill:#FFC051;" d="M439.863,79.94l-33.221-18.944l-26.465,16.84l-0.007,32.518l94.096,0.004l0.005-32.517
			l-13.005-8.642L439.863,79.94z"/>
		<path style="fill:#FFC051;" d="M450.645,51.93c0.002-3.367-2.727-6.098-6.094-6.099c-3.368-0.001-6.098,2.728-6.099,6.095
			c-0.002,3.367,2.727,6.098,6.094,6.099C447.914,58.026,450.645,55.297,450.645,51.93z"/>
		
			<rect x="380.171" y="33.308" style="fill:none;stroke:#FFC051;stroke-width:2;stroke-linecap:round;stroke-linejoin:round;stroke-miterlimit:10;" width="94.096" height="77.049"/>
	</g>
</g>
<g id="Clock">
	<g id="Layer-18_2_">
		<g>
			<path style="fill:none;stroke:#FFC051;stroke-width:2;stroke-linecap:round;stroke-linejoin:round;stroke-miterlimit:10;" d="
				M27.688,120.092c0-19.027,15.265-34.451,34.096-34.451c18.831,0,34.096,15.424,34.096,34.451s-15.265,34.451-34.096,34.451
				C42.953,154.543,27.688,139.119,27.688,120.092z"/>
			<path style="fill:none;stroke:#FFC051;stroke-width:2;stroke-linecap:round;stroke-linejoin:round;stroke-miterlimit:10;" d="
				M34.588,120.092c0-15.176,12.176-27.479,27.196-27.479s27.196,12.303,27.196,27.479c0,15.176-12.176,27.479-27.196,27.479
				S34.588,135.268,34.588,120.092z"/>
			<path style="fill:#FFC051;" d="M58.572,120.092c0-1.792,1.438-3.245,3.211-3.245c1.774,0,3.211,1.453,3.211,3.245
				c0,1.792-1.438,3.245-3.211,3.245C60.01,123.337,58.572,121.884,58.572,120.092z"/>
			<path style="fill:none;stroke:#FFC051;stroke-width:2;stroke-linecap:round;stroke-linejoin:round;stroke-miterlimit:10;" d="
				M61.783,112.742V99.153"/>
			<path style="fill:none;stroke:#FFC051;stroke-width:2;stroke-linecap:round;stroke-linejoin:round;stroke-miterlimit:10;" d="
				M58.035,102.196l3.842-4.811l3.656,4.811"/>
			<path style="fill:none;stroke:#FFC051;stroke-width:2;stroke-linecap:round;stroke-linejoin:round;stroke-miterlimit:10;" d="
				M69.555,120.092h9.858"/>
			<path style="fill:none;stroke:#FFC051;stroke-width:2;stroke-linecap:round;stroke-linejoin:round;stroke-miterlimit:10;" d="
				M77.206,117.315l3.49,2.845l-3.49,2.708"/>
		</g>
	</g>
</g>
<g id="Tab">
	<g>
		<g id="Layer-17_00000042012803346893185710000008075270947031743639_">
			<path style="fill:#FFFFFF;" d="M84.101,120.934V66.422c0-6.918,5.608-12.526,12.526-12.526h326.4
				c6.918,0,12.526,5.608,12.526,12.526v204.339c0,6.918-5.608,12.526-12.526,12.526h-326.4c-6.918,0-12.526-5.608-12.526-12.526
				V120.934"/>
		</g>
		<path style="fill:none;stroke:#263238;stroke-width:2;stroke-linecap:round;stroke-linejoin:round;stroke-miterlimit:10;" d="
			M84.101,120.934V66.422c0-6.918,5.608-12.526,12.526-12.526h326.4c6.918,0,12.526,5.608,12.526,12.526v204.339
			c0,6.918-5.608,12.526-12.526,12.526h-326.4c-6.918,0-12.526-5.608-12.526-12.526V120.934"/>
		<path style="fill:none;stroke:#263238;stroke-width:2;stroke-linecap:round;stroke-linejoin:round;stroke-miterlimit:10;" d="
			M84.101,76.641h351.454"/>
		<g>
			<path style="fill:none;stroke:#263238;stroke-width:2;stroke-linecap:round;stroke-linejoin:round;stroke-miterlimit:10;" d="
				M405.766,61.982h9.633"/>
			<path style="fill:none;stroke:#263238;stroke-width:2;stroke-linecap:round;stroke-linejoin:round;stroke-miterlimit:10;" d="
				M405.766,66.115h9.633"/>
			<path style="fill:none;stroke:#263238;stroke-width:2;stroke-linecap:round;stroke-linejoin:round;stroke-miterlimit:10;" d="
				M405.766,70.247h9.633"/>
		</g>
		<path style="fill:#263238;" d="M101.438,66.462c0-1.493,1.21-2.703,2.703-2.703c1.493,0,2.703,1.21,2.703,2.703
			c0,1.493-1.21,2.703-2.703,2.703C102.648,69.165,101.438,67.955,101.438,66.462z"/>
		<path style="fill:#263238;" d="M111.85,66.462c0-1.493,1.21-2.703,2.703-2.703c1.492,0,2.702,1.21,2.702,2.703
			c0,1.493-1.21,2.703-2.702,2.703C113.06,69.165,111.85,67.955,111.85,66.462z"/>
		<path style="fill:#263238;" d="M122.262,66.462c0-1.493,1.21-2.703,2.702-2.703c1.493,0,2.703,1.21,2.703,2.703
			c0,1.493-1.21,2.703-2.703,2.703C123.472,69.165,122.262,67.955,122.262,66.462z"/>
		<g id="Layer-12_00000151522598783302096380000014157772895080789680_">
			<path style="fill:#FF367C;" d="M203.747,237.726c0-6.207,5.032-11.239,11.239-11.239h96.325c6.207,0,11.239,5.032,11.239,11.239
				v11.501c0,6.207-5.032,11.239-11.239,11.239h-96.325c-6.207,0-11.239-5.032-11.239-11.239V237.726z"/>
		</g>
		<g id="Layer-15_00000039824720598788555030000015814237757342600323_">
			<path style="fill:none;stroke:#263238;stroke-width:2;stroke-linecap:round;stroke-linejoin:round;stroke-miterlimit:10;" d="
				M301.733,249.52c-0.678-0.073-1.24,0.514-1.139,1.187l2.217,14.655c0.129,0.852,1.179,1.186,1.776,0.563l2.505-2.614
				c0.397-0.414,1.055-0.428,1.468-0.03l8.887,8.518c0.414,0.397,1.071,0.384,1.469-0.03l4.618-4.818
				c0.396-0.414,0.383-1.071-0.031-1.468l-8.887-8.518c-0.414-0.397-0.428-1.055-0.031-1.469l2.521-2.63
				c0.596-0.622,0.219-1.658-0.638-1.751L301.733,249.52z"/>
		</g>
		<path style="fill:#FF367C;" d="M374.651,173.424l-28.287-16.131l-22.536,14.339l-0.006,27.688l80.123,0.004l0.004-27.688
			l-11.074-7.359L374.651,173.424z"/>
		<path style="fill:none;stroke:#263238;stroke-width:2;stroke-linecap:round;stroke-linejoin:round;stroke-miterlimit:10;" d="
			M324.97,132.947c-0.619-0.001-1.121,0.501-1.121,1.121l-0.019,64.411c0,0.619,0.502,1.121,1.121,1.121l77.859,0.032
			c0.62,0,1.122-0.502,1.122-1.121l0.019-64.411c0-0.619-0.502-1.121-1.121-1.122L324.97,132.947z"/>
		<path style="fill:none;stroke:#263238;stroke-width:2;stroke-linecap:round;stroke-linejoin:round;stroke-miterlimit:10;" d="
			M319.177,128.122c-0.62,0-1.122,0.502-1.122,1.121l-0.021,74.055c0,0.619,0.501,1.121,1.121,1.122l89.449,0.036
			c0.619,0,1.121-0.501,1.122-1.121l0.021-74.055c0-0.619-0.502-1.121-1.121-1.121L319.177,128.122z"/>
		<path style="fill:#FF367C;" d="M383.832,149.573c0.001-2.867-2.323-5.192-5.19-5.193c-2.867-0.001-5.192,2.323-5.193,5.19
			c-0.001,2.867,2.322,5.192,5.19,5.193C381.506,154.764,383.831,152.441,383.832,149.573z"/>
		<path style="fill:none;stroke:#263238;stroke-width:2;stroke-linecap:round;stroke-linejoin:round;stroke-miterlimit:10;" d="
			M142.383,131.298h163.381"/>
		<path style="fill:none;stroke:#263238;stroke-width:2;stroke-linecap:round;stroke-linejoin:round;stroke-miterlimit:10;" d="
			M142.383,142.786h163.381"/>
		<path style="fill:none;stroke:#263238;stroke-width:2;stroke-linecap:round;stroke-linejoin:round;stroke-miterlimit:10;" d="
			M142.304,154.274h163.46"/>
		<path style="fill:none;stroke:#263238;stroke-width:2;stroke-linecap:round;stroke-linejoin:round;stroke-miterlimit:10;" d="
			M142.383,165.763h163.381"/>
		<path style="fill:none;stroke:#263238;stroke-width:2;stroke-linecap:round;stroke-linejoin:round;stroke-miterlimit:10;" d="
			M202.079,177.251h103.685"/>
		<path style="fill:none;stroke:#263238;stroke-width:2;stroke-linecap:round;stroke-linejoin:round;stroke-miterlimit:10;" d="
			M205.111,188.739h100.653"/>
		<path style="fill:none;stroke:#263238;stroke-width:2;stroke-linecap:round;stroke-linejoin:round;stroke-miterlimit:10;" d="
			M206.064,200.227h99.7"/>
		<path style="fill:none;stroke:#263238;stroke-width:2;stroke-linecap:round;stroke-linejoin:round;stroke-miterlimit:10;" d="
			M206.064,211.716h99.7"/>
		<g id="Layer-13_00000024724213993884197380000007485905393611536818_">
			<path style="fill:#FF367C;" d="M116.652,132.239c0-2.274,1.844-4.117,4.118-4.117h6.356c2.274,0,4.117,1.843,4.117,4.117v6.356
				c0,2.274-1.843,4.118-4.117,4.118h-6.356c-2.274,0-4.118-1.844-4.118-4.118V132.239z"/>
			<path style="fill:#FF367C;" d="M342.898,101.63c0-0.812,0.659-1.471,1.471-1.471h59.555c0.813,0,1.471,0.658,1.471,1.471v5.652
				c0,0.812-0.658,1.471-1.471,1.471h-59.555c-0.812,0-1.471-0.658-1.471-1.471V101.63z"/>
			<path style="fill:#FF367C;" d="M116.652,101.63c0-0.812,0.659-1.471,1.471-1.471h59.556c0.812,0,1.47,0.658,1.47,1.471v5.652
				c0,0.812-0.658,1.471-1.47,1.471h-59.556c-0.812,0-1.471-0.658-1.471-1.471V101.63z"/>
		</g>
		<g>
			<path style="fill:#FF367C;" d="M213.409,109.799h-7.962l-1.514,4.541h-4.829l8.204-22.039h4.208l8.25,22.039h-4.829
				L213.409,109.799z M206.673,106.12h5.51l-2.77-8.249L206.673,106.12z"/>
			<path style="fill:#FF367C;" d="M229.984,106.272h-3.618v8.068h-4.541V92.301h8.189c2.604,0,4.611,0.581,6.024,1.741
				c1.413,1.161,2.119,2.8,2.119,4.92c0,1.504-0.326,2.757-0.976,3.762c-0.651,1.004-1.638,1.804-2.959,2.399l4.768,9.006v0.212
				h-4.874L229.984,106.272z M226.366,102.594h3.663c1.14,0,2.023-0.29,2.649-0.87c0.625-0.581,0.938-1.38,0.938-2.399
				c0-1.039-0.295-1.856-0.885-2.452c-0.591-0.595-1.497-0.893-2.717-0.893h-3.648V102.594z"/>
			<path style="fill:#FF367C;" d="M257.442,95.979h-6.752v18.361h-4.541V95.979h-6.66v-3.678h17.953V95.979z"/>
			<path style="fill:#FF367C;" d="M264.859,114.34h-4.541V92.301h4.541V114.34z"/>
			<path style="fill:#FF367C;" d="M286.368,106.998c-0.172,2.372-1.048,4.238-2.627,5.601c-1.579,1.362-3.66,2.044-6.244,2.044
				c-2.825,0-5.048-0.951-6.667-2.854c-1.62-1.902-2.43-4.513-2.43-7.833v-1.347c0-2.119,0.373-3.986,1.12-5.601
				c0.747-1.614,1.813-2.853,3.201-3.716c1.388-0.862,3-1.294,4.836-1.294c2.543,0,4.592,0.681,6.147,2.043
				c1.554,1.362,2.451,3.275,2.693,5.737h-4.541c-0.11-1.423-0.507-2.455-1.188-3.096c-0.682-0.641-1.719-0.961-3.111-0.961
				c-1.514,0-2.646,0.542-3.397,1.627c-0.752,1.085-1.138,2.768-1.158,5.048v1.665c0,2.382,0.36,4.123,1.082,5.222
				c0.722,1.1,1.859,1.65,3.413,1.65c1.403,0,2.45-0.32,3.142-0.961c0.69-0.641,1.087-1.632,1.188-2.974H286.368z"/>
			<path style="fill:#FF367C;" d="M293.891,110.692h9.642v3.648H289.35V92.301h4.541V110.692z"/>
			<path style="fill:#FF367C;" d="M319.396,104.788h-8.719v5.903h10.232v3.648h-14.773V92.301h14.743v3.678h-10.202v5.253h8.719
				V104.788z"/>
		</g>
		<g>
			<path style="fill:#FFFFFF;" d="M232.332,244.452v4.14h-2.421v-11.749h4.584c0.882,0,1.658,0.162,2.328,0.484
				c0.67,0.323,1.185,0.781,1.545,1.376c0.361,0.595,0.541,1.271,0.541,2.029c0,1.152-0.394,2.06-1.182,2.724
				c-0.788,0.664-1.879,0.997-3.272,0.997H232.332z M232.332,242.491h2.163c0.64,0,1.129-0.15,1.465-0.452
				c0.336-0.301,0.504-0.732,0.504-1.291c0-0.575-0.169-1.041-0.508-1.396c-0.339-0.355-0.807-0.538-1.404-0.549h-2.219V242.491z"/>
			<path style="fill:#FFFFFF;" d="M249.464,236.842v7.739c0,1.286-0.402,2.303-1.206,3.05c-0.804,0.748-1.903,1.122-3.297,1.122
				c-1.372,0-2.461-0.363-3.268-1.089c-0.807-0.727-1.219-1.724-1.235-2.994v-7.828h2.421v7.755c0,0.769,0.184,1.33,0.553,1.682
				c0.368,0.352,0.878,0.528,1.529,0.528c1.361,0,2.052-0.715,2.074-2.146v-7.82H249.464z"/>
			<path style="fill:#FFFFFF;" d="M251.449,248.592v-11.749h4.116c1.426,0,2.507,0.273,3.244,0.819
				c0.737,0.546,1.106,1.346,1.106,2.401c0,0.575-0.148,1.083-0.444,1.521c-0.295,0.438-0.708,0.76-1.234,0.964
				c0.602,0.15,1.077,0.455,1.424,0.912c0.347,0.457,0.52,1.017,0.52,1.679c0,1.13-0.36,1.985-1.081,2.566
				c-0.721,0.581-1.749,0.877-3.083,0.888H251.449z M253.87,241.765h1.792c1.221-0.022,1.831-0.508,1.831-1.461
				c0-0.533-0.154-0.916-0.464-1.15c-0.31-0.234-0.798-0.351-1.465-0.351h-1.694V241.765z M253.87,243.476v3.171h2.074
				c0.571,0,1.016-0.136,1.336-0.407c0.32-0.272,0.48-0.647,0.48-1.126c0-1.076-0.557-1.622-1.67-1.638H253.87z"/>
			<path style="fill:#FFFFFF;" d="M264.417,246.647h5.14v1.945h-7.561v-11.749h2.421V246.647z"/>
			<path style="fill:#FFFFFF;" d="M273.52,248.592h-2.421v-11.749h2.421V248.592z"/>
			<path style="fill:#FFFFFF;" d="M281.856,245.509c0-0.457-0.161-0.808-0.484-1.053c-0.322-0.245-0.903-0.503-1.743-0.775
				c-0.839-0.271-1.504-0.539-1.993-0.803c-1.334-0.721-2.001-1.692-2.001-2.913c0-0.635,0.178-1.201,0.537-1.699
				c0.357-0.497,0.871-0.886,1.541-1.166c0.67-0.279,1.422-0.419,2.255-0.419c0.839,0,1.587,0.152,2.243,0.455
				c0.656,0.304,1.167,0.733,1.53,1.288c0.363,0.554,0.545,1.184,0.545,1.888h-2.421c0-0.538-0.169-0.956-0.509-1.255
				c-0.339-0.299-0.815-0.448-1.428-0.448c-0.592,0-1.052,0.125-1.38,0.375c-0.328,0.25-0.492,0.58-0.492,0.989
				c0,0.382,0.192,0.702,0.576,0.961c0.385,0.258,0.952,0.5,1.699,0.726c1.378,0.414,2.38,0.928,3.01,1.541
				c0.629,0.613,0.944,1.377,0.944,2.292c0,1.016-0.384,1.814-1.154,2.393c-0.769,0.578-1.804,0.867-3.106,0.867
				c-0.904,0-1.727-0.166-2.47-0.497c-0.743-0.331-1.309-0.784-1.699-1.359c-0.39-0.576-0.585-1.243-0.585-2.001h2.429
				c0,1.296,0.775,1.945,2.325,1.945c0.575,0,1.025-0.117,1.347-0.351C281.695,246.256,281.856,245.929,281.856,245.509z"/>
			<path style="fill:#FFFFFF;" d="M295.486,248.592h-2.421v-5.036h-4.721v5.036h-2.421v-11.749h2.421v4.761h4.721v-4.761h2.421
				V248.592z"/>
		</g>
	</g>
</g>
<g id="Plant">
	<g>
		<path style="fill:#FFC051;" d="M396.406,342.211c-1.755,0-3.272,1.225-3.642,2.941l-20.294,94.031
			c-0.501,2.322,1.268,4.513,3.642,4.513h54.652c2.315,0,4.07-2.089,3.67-4.369l-16.469-94.032
			c-0.312-1.783-1.861-3.084-3.671-3.084H396.406z"/>
		<path style="fill:#263238;" d="M396.601,345.36h18.052c0,0-1.885,5.774-8.804,5.667C398.81,350.918,396.601,345.36,396.601,345.36
			z"/>
		<path style="fill:none;stroke:#263238;stroke-width:2;stroke-linecap:round;stroke-linejoin:round;stroke-miterlimit:10;" d="
			M405.849,300.95v46.246"/>
		<path style="fill:#263238;" d="M409.757,333.866c-0.493,1.345-0.959,2.286,2.012,0.486c5.554-3.363,21.293-14.893,17.906-19.554
			c-1.129-1.552-2.633-2.026-3.956-1.997C419.558,312.937,412.006,327.721,409.757,333.866z"/>
		<path style="fill:#263238;" d="M403.103,330.318c0.343,1.106,0.681,1.885-1.645,0.312c-4.35-2.939-16.596-12.882-13.673-16.51
			c0.974-1.208,2.207-1.53,3.275-1.454C396.029,313.024,401.533,325.266,403.103,330.318z"/>
		<path style="fill:#FF367C;" d="M405.694,306.071c4.597,0.602,13.716-3.379,17.783-12.664c4.232-9.663,7.614-28.471,0.794-29.383
			c-6.819-0.913-10.884,18.239-10.884,18.239s0.111-19.825-7.176-19.622s-8.735,19.622-8.735,19.622s-2.282-19.01-7.287-18.81
			c-8.468,0.337-6.476,22.246-2.85,29.017C393.347,303.686,400.542,305.396,405.694,306.071z"/>
		<path style="fill:none;stroke:#FFFFFF;stroke-width:2;stroke-linecap:round;stroke-linejoin:round;stroke-miterlimit:10;" d="
			M379.474,437.188h47.747"/>
	</g>
</g>
<g id="Character">
	<g>
		<g id="Layer-32_2_">
			<path style="fill:#FF367C;" d="M50.214,448.098c0,0-23.159-3.519-27.504-37.385c-5.341-41.633,10.986-91.214,58.237-125.493
				c49.184-35.681,101.729-27.914,121.659-20.563c48.308,17.817,102.525,62.64,102.525,121.133
				c0,45.494-29.129,63.301-29.129,63.301L50.214,448.098z"/>
		</g>
		<g id="Layer-34_2_">
			<path style="opacity:0.2481;fill:#FFFFFF;enable-background:new    ;" d="M164.711,258.591c-0.648-0.009-1.343,0.03-2,0.031
				v189.969h2V258.591z M152.523,258.841c-0.655,0.049-1.338,0.128-2,0.187v189.5l2,0.032V258.841z M174.93,259.121v189.531h2
				V259.277C176.275,259.211,175.599,259.181,174.93,259.121z M140.304,260.341c-0.666,0.109-1.328,0.223-2,0.343v187.782l2,0.031
				V260.341z M187.148,260.716v187.968l2,0.032V261.091C188.496,260.957,187.825,260.841,187.148,260.716z M128.086,262.871
				c-0.666,0.172-1.331,0.347-2,0.531v185.031h2V262.871z M199.336,263.652v185.094h2V264.277
				C200.744,264.072,199.977,263.858,199.336,263.652z M115.867,266.716c-0.664,0.24-1.334,0.498-2,0.75v180.906h2V266.716z
				 M211.554,268.246V448.81h2V269.184C212.886,268.885,212.223,268.535,211.554,268.246z M103.68,271.81
				c-0.667,0.315-1.333,0.607-2,0.937V448.31l2,0.031V271.81z M223.773,274.121v174.75h2V275.184
				C225.106,274.828,224.441,274.469,223.773,274.121z M91.461,278.31c-0.669,0.401-1.332,0.802-2,1.218v168.75h2V278.31z
				 M235.992,281.06v167.843l2,0.031V282.277C237.329,281.858,236.658,281.47,235.992,281.06z M79.242,286.56
				c-0.68,0.507-1.333,1.017-2,1.531v160.125h2V286.56z M248.18,289.152v159.813h2v-158.25
				C249.502,290.208,248.863,289.65,248.18,289.152z M67.055,296.621c-0.649,0.592-1.366,1.151-2,1.75v149.781h2V296.621z
				 M260.398,298.996v150.031h2V300.716C261.744,300.128,261.062,299.574,260.398,298.996z M54.836,309.121
				c-0.674,0.778-1.348,1.558-2,2.344v136.625l2,0.031V309.121z M272.617,310.684v138.407h2V312.966
				C273.942,312.211,273.308,311.426,272.617,310.684z M42.617,325.496c-0.659,1.031-1.375,2.055-2,3.094V443.81
				c0.665,0.437,1.373,0.991,2,1.343V325.496z M284.804,325.652v115.813c0.654-0.692,1.316-1.582,2-2.375V328.621
				C286.143,327.628,285.495,326.63,284.804,325.652z M297.023,347.496v75.75c0.71-1.484,1.351-3.092,2-4.719v-66.062
				C298.407,350.788,297.724,349.141,297.023,347.496z M30.398,349.652c-0.702,1.831-1.387,3.661-2,5.5v74.657
				c0.63,1.22,1.318,2.247,2,3.312V349.652z"/>
		</g>
		<g id="Layer-10_2_">
			<path style="fill:#263238;" d="M179.824,188.26c-9.769-0.357-19.622,5.241-19.622,5.241s-12.81-7.052-23.868,1.3
				c-7.587,5.731-7.327,10.474-11.089,18.496c-2.86,6.098-11.312,4.315-15.94,10.569c-1.251,1.69-2.129,3.779-2.643,6.021
				c-8.076-2.361-17.652-4.178-22.741-1.256c-11.253,6.461-6.916,21.184,3.249,23.651c8.549,2.075,16.831-2.419,22.958-7.407
				c0.95,1.148,3.544,3.359,5.095,3.942c15.969,6,28.717-6.628,28.717-6.628l-4.314-9.919c0,0,11.724-1.999,20.186-6.541
				c10.905-5.854,13.645-14.208,13.645-14.208s2.135,3.606,5.674,6.194c3.658,2.675,9.356,3.639,9.356,3.639
				s7.788-3.199,9.357-12.172c1.276-7.297-4.614-18.134-13.861-20.359C182.62,188.495,181.22,188.311,179.824,188.26z"/>
		</g>
		<path style="fill:none;stroke:#FFFFFF;stroke-width:2;stroke-linecap:round;stroke-linejoin:round;stroke-miterlimit:10;" d="
			M76.496,383.977c0,0,20.004-8.024,32.331-6.142c27.52,4.202,23.908,36.118,19.797,46.609
			c-4.087,10.432-12.605,18.623-12.605,18.623"/>
		<path style="fill:none;stroke:#FFFFFF;stroke-width:2;stroke-linecap:round;stroke-linejoin:round;stroke-miterlimit:10;" d="
			M109.312,321.228c0,0-5.722,14.843-8.27,26.384c-4.71,21.336-5.646,30.223-5.646,30.223"/>
		<path style="fill:none;stroke:#263238;stroke-width:2;stroke-linecap:round;stroke-linejoin:round;stroke-miterlimit:10;" d="
			M186.263,240.732c7.341-11.927,3.623-27.547-8.304-34.888c-11.927-7.341-27.546-3.623-34.887,8.304
			c-7.341,11.927-3.624,27.546,8.303,34.887C163.302,256.375,178.922,252.658,186.263,240.732z"/>
		<path style="fill:#FF367C;" d="M163.215,232.52c0.32-1.546-0.66-3.056-2.19-3.373c-1.53-0.318-3.03,0.678-3.351,2.224
			c-0.32,1.546,0.66,3.057,2.19,3.374S162.894,234.066,163.215,232.52z"/>
		<path style="fill:#263238;" d="M169.138,231.105c0.673-1.143,0.292-2.615-0.851-3.288c-1.142-0.673-2.614-0.292-3.287,0.851
			c-0.673,1.142-0.292,2.614,0.85,3.287C166.993,232.628,168.465,232.247,169.138,231.105z"/>
		<path style="fill:#263238;" d="M185.467,235.447c0.673-1.143,0.292-2.615-0.85-3.287c-1.143-0.673-2.615-0.293-3.288,0.85
			s-0.292,2.614,0.851,3.287C183.322,236.971,184.794,236.59,185.467,235.447z"/>
		<path style="fill:none;stroke:#263238;stroke-width:2;stroke-linecap:round;stroke-linejoin:round;stroke-miterlimit:10;" d="
			M175.396,230.46l0.726,8.687l-5.273-2.072"/>
		<path style="fill:none;stroke:#263238;stroke-width:2;stroke-linecap:round;stroke-linejoin:round;stroke-miterlimit:10;" d="
			M117.144,427.146c0,0,9.983,6.002,20.207,4.358c9.923-1.596,10.693-5.604,16.765-7.016c8.548-1.988,19.43,3.761,22.504,0.893
			c3.074-2.867,0.104-6.373-6.294-10.495c-5.123-3.3-10.413-4.084-10.413-4.084s4.538,0.573,10.434,3.816
			c5.896,3.242,9.095,7.838,13.051,5.203c3.956-2.635-2.543-15.148-12.334-18.418c-7.253-2.421-9.781-1.808-9.781-1.808
			s4.752-0.662,11.239,2.012c5.951,2.453,18.986,6.829,20.536,3.416c2.658-5.851-13.386-14.122-24.838-17.079
			c-22.364-5.774-48.899,13.638-48.899,13.638"/>
		<path style="fill:none;stroke:#263238;stroke-width:2;stroke-linecap:round;stroke-linejoin:round;stroke-miterlimit:10;" d="
			M163.275,238.572c0,0,0.735,4.206,3.358,5.21c2.726,1.043,5.11-0.85,5.11-0.85"/>
		<g id="Layer-24_2_">
			<path style="fill:#FFFFFF;" d="M146.102,265.548c0,0,8.416-1.299,17.173-1.326s17.856,1.216,17.856,1.216l-13.622,36.192
				L146.102,265.548z"/>
		</g>
		<circle style="fill:#263238;" cx="167.069" cy="271.81" r="3.314"/>
		<circle style="fill:#263238;" cx="167.069" cy="285.063" r="3.314"/>
		<g id="Layer-9_2_">
			<g>
				<path style="fill:none;stroke:#FFC051;stroke-width:2;stroke-linecap:round;stroke-linejoin:round;stroke-miterlimit:10;" d="
					M152.307,227.165c-0.025-6.359,4.766-11.533,10.7-11.556c5.934-0.023,10.764,5.113,10.789,11.472
					c0.025,6.359-4.765,11.533-10.7,11.556C157.162,238.66,152.332,233.523,152.307,227.165z"/>
				<path style="fill:none;stroke:#FFC051;stroke-width:2;stroke-linecap:round;stroke-linejoin:round;stroke-miterlimit:10;" d="
					M178.785,232.566c-0.022-5.545,4.155-10.056,9.329-10.076s9.386,4.458,9.408,10.003c0.021,5.544-4.155,10.055-9.329,10.075
					C183.019,242.589,178.807,238.109,178.785,232.566z"/>
				<path style="fill:none;stroke:#FFC051;stroke-width:2;stroke-linecap:round;stroke-linejoin:round;stroke-miterlimit:10;" d="
					M173.991,229.973l5.019,1.217"/>
			</g>
		</g>
		<g id="Layer-7_2_">
			<path style="fill:none;stroke:#FFFFFF;stroke-width:2;stroke-linecap:round;stroke-linejoin:round;stroke-miterlimit:10;" d="
				M263.591,349.397c0,0-35.135-17.016-52.685-8.383c-22.419,11.028-22.257,39.057-16.858,51.396
				c7.144,16.324,28.717,27.41,28.717,27.41"/>
			<path style="fill:none;stroke:#FFFFFF;stroke-width:2;stroke-linecap:round;stroke-linejoin:round;stroke-miterlimit:10;" d="
				M220.73,317.03c0,0,2.264,3.428,4.608,9.3c1.636,4.098,2.948,12.058,2.948,12.058"/>
		</g>
		<path style="fill:#FFC051;" d="M184.946,326.25h-42.658l6.899,48.418c0,1.748,1.652,3.166,3.691,3.166h22.108
			c2.039,0,3.692-1.418,3.692-3.166L184.946,326.25z"/>
		<path style="fill:#263238;" d="M143.495,307.03c-0.719,0-1.306,0.634-1.306,1.41v5.957c0,0.039,0.029,0.068,0.032,0.106h-3.429
			c-1.079,0-1.96,0.951-1.96,2.115v8.037c0,1.164,0.881,2.115,1.96,2.115h49.649c1.079,0,1.96-0.951,1.96-2.115v-8.037
			c0-1.164-0.881-2.115-1.96-2.115h-3.43c0.003-0.038,0.033-0.067,0.033-0.106v-5.957c0-0.776-0.587-1.41-1.307-1.41H143.495z"/>
		<path style="fill:none;stroke:#263238;stroke-width:2;stroke-linecap:round;stroke-linejoin:round;stroke-miterlimit:10;" d="
			M205.431,358.793c0,0-18.925-34.92-52.832-23.307c-13.709,4.695-10.892,14.374-10.892,14.374s4.687-3.165,11.718-5.417
			c7.03-2.253,17.297-0.751,17.297-0.751s-13.511-0.819-17.782,0.826c-4.27,1.645-16.18,5.314-13.757,11.895
			c1.666,4.524,9.89-0.183,15.314-0.597s13.823,0.007,13.823,0.007s-5.436,0.883-14.62,2.987c-8.775,2.011-10.529,6.786-8.987,9.813
			c1.523,2.989,24.563-0.744,24.563-0.744s11.22,18.39,28.301,12.595"/>
	</g>
	
		<polyline style="fill:none;stroke:#FFFFFF;stroke-width:2;stroke-linecap:round;stroke-linejoin:round;stroke-miterlimit:10;" points="
		116.824,264.479 138.984,289.766 146.956,272.149 	"/>
	
		<polyline style="fill:none;stroke:#FFFFFF;stroke-width:2;stroke-linecap:round;stroke-linejoin:round;stroke-miterlimit:10;" points="
		181.979,272.149 193.03,286.957 205.111,265.766 	"/>
</g>
<g id="Table">
	<g id="Layer-6_1_">
		<path style="fill:#263238;" d="M28.633,446.668c0-1.642,1.33-2.972,2.972-2.972h436.648c1.641,0,2.971,1.33,2.971,2.972v15.518
			c0,1.641-1.33,2.971-2.971,2.971H31.605c-1.641,0-2.972-1.33-2.972-2.971V446.668z"/>
	</g>
</g>
<g id="Laptop"  >
	<g>
		<g id="Layer-31_00000154400098402719500200000004160279027312742552_">
			<path style="fill:#FFFFFF;" d="M356.071,340.515c6.664,0,12.081,5.724,12.081,12.831l-14.413,77.916
				c0,7.108-4.561,13.812-11.225,13.812c-0.025,0-0.05,0-0.075,0l-193.906-1.123c-1.843,0.106-1.564-0.992-1.559-1.692l0.055-10.973
				c0.01-1.238,0.736-1.876,2.391-1.876h52.867l13.598-76.562c0-7.107,5.416-12.831,12.081-12.831L356.071,340.515z"/>
		</g>
		<path style="fill:none;stroke:#263238;stroke-width:2;stroke-linecap:round;stroke-linejoin:round;stroke-miterlimit:10;" d="
			M301.415,359.017c0-3.132-2.539-5.671-5.671-5.671c-3.132,0-5.671,2.539-5.671,5.671s2.539,5.671,5.671,5.671
			C298.876,364.688,301.415,362.149,301.415,359.017z"/>
		<path style="fill:none;stroke:#263238;stroke-width:2;stroke-linecap:round;stroke-linejoin:round;stroke-miterlimit:10;" d="
			M356.071,340.515c6.664,0,12.081,5.724,12.081,12.831l-14.413,77.916c0,7.108-4.561,13.812-11.225,13.812c-0.025,0-0.05,0-0.075,0
			l-193.906-1.123c-1.843,0.106-1.564-0.992-1.559-1.692l0.055-10.973c0.01-1.238,0.736-1.876,2.391-1.876h52.867l13.585-76.562
			c0.001-7.107,5.417-12.831,12.081-12.831h5.257L356.071,340.515z"/>
		<path style="fill:none;stroke:#263238;stroke-width:2;stroke-linecap:round;stroke-linejoin:round;stroke-miterlimit:10;" d="
			M342.837,429.41h-132.57"/>
	</g>
</g>
</svg>
